<?xml version="1.0" encoding="utf-8"?>
<!-- Generator: Adobe Illustrator 23.1.0, SVG Export Plug-In . SVG Version: 6.00 Build 0)  -->
<svg version="1.1" id="Layer_1" xmlns="http://www.w3.org/2000/svg" xmlns:xlink="http://www.w3.org/1999/xlink" x="0px" y="0px"
	 viewBox="0 0 19 19" style="enable-background:new 0 0 19 19;" xml:space="preserve">
<style type="text/css">
	.st0{fill-rule:evenodd;clip-rule:evenodd;}
</style>
<path class="st0" d="M17.4,0H1.6C0.7,0,0,0.7,0,1.6v15.7c0,0.9,0.7,1.6,1.6,1.6h15.8c0.8,0,1.5-0.7,1.6-1.5V1.6
	C19,0.7,18.3,0,17.4,0z M5.6,16.2H2.8V7.3h2.8V16.2z M4.2,5.9c-0.9,0-1.7-0.7-1.7-1.7c0-0.9,0.8-1.7,1.7-1.7c0.9,0,1.7,0.8,1.7,1.7
	C5.9,5.1,5.1,5.9,4.2,5.9z M16.3,16.2h-2.8v-4.4c0-1.5-0.3-2.3-1.4-2.3c-1.5,0-2,1.1-2,2.3v4.4H7.3V7.3h2.6h0.2v1.4
	c0.3-0.7,1.3-1.5,2.7-1.5c2.6,0,3.5,1.2,3.5,4V16.2z"/>
</svg>
