<?xml version="1.0" encoding="utf-8"?>
<!-- Generator: Adobe Illustrator 23.1.0, SVG Export Plug-In . SVG Version: 6.00 Build 0)  -->
<svg version="1.1" id="Layer_1" xmlns="http://www.w3.org/2000/svg" xmlns:xlink="http://www.w3.org/1999/xlink" x="0px" y="0px"
	 viewBox="0 0 20.6 20.6" style="enable-background:new 0 0 20.6 20.6;" xml:space="preserve">
<path d="M6.5,18.7c7.8,0,12-6.4,12-12c0-0.2,0-0.4,0-0.5C19.3,5.6,20,4.9,20.6,4c-0.8,0.3-1.6,0.6-2.4,0.7c0.9-0.5,1.5-1.4,1.9-2.3
	c-0.9,0.3-1.8,0.7-2.8,0.9c-0.6-0.7-1.5-1.1-2.4-1.3S13,2,12.2,2.4s-1.5,1.1-1.9,2C9.9,5.2,9.8,6.2,10,7.1C8.5,7,6.8,6.6,5.3,5.8
	C3.8,5.1,2.5,4,1.4,2.7c-0.5,0.9-0.7,2-0.5,3.1c0.2,1,0.9,2,1.8,2.6C2,8.4,1.4,8.2,0.8,7.9c0,0,0,0,0,0.1c0,1,0.3,1.9,1,2.7
	s1.5,1.3,2.4,1.5c-0.6,0.2-1.3,0.2-1.9,0.1c0.3,0.8,0.8,1.6,1.5,2.1c0.7,0.5,1.6,0.8,2.4,0.8C4.7,16.4,2.9,17,1,17
	c-0.3,0-0.7,0-1-0.1C1.9,18,4.2,18.7,6.5,18.7"/>
</svg>
