<?xml version="1.0" encoding="utf-8"?>
<!-- Generator: Adobe Illustrator 24.1.2, SVG Export Plug-In . SVG Version: 6.00 Build 0)  -->
<svg version="1.1" id="Layer_1" xmlns="http://www.w3.org/2000/svg" xmlns:xlink="http://www.w3.org/1999/xlink" x="0px" y="0px"
	 viewBox="0 0 18.2 18.2" style="enable-background:new 0 0 18.2 18.2;" xml:space="preserve">
<style type="text/css">
	.st0{fill-rule:evenodd;clip-rule:evenodd;}
</style>
<path class="st0" d="M16.2,13.1l-4.3-11L0,13.1H16.2z M14.6,12h-0.8l-2.9-7.4L11.4,4L14.6,12z M2.8,12h9.8L10,5.3L2.8,12z M7.2,14v1
	h1.9v-1h1.1v1c0,0.6-0.5,1-1.1,1h-2c-0.6,0-1.1-0.5-1.1-1v-1H7.2z M16.2,10.1h2V9h-2V10.1z M16.5,3.9L15,5.4l-0.8-0.8l1.5-1.5
	L16.5,3.9z M15.9,7.8l2-1l-0.5-1l-2,1L15.9,7.8z"/>
</svg>
