<?xml version="1.0" encoding="utf-8"?>
<!-- Generator: Adobe Illustrator 23.1.0, SVG Export Plug-In . SVG Version: 6.00 Build 0)  -->
<svg version="1.1" id="Layer_1" xmlns="http://www.w3.org/2000/svg" xmlns:xlink="http://www.w3.org/1999/xlink" x="0px" y="0px"
	 viewBox="0 0 640 640" style="enable-background:new 0 0 640 640;" xml:space="preserve">
<style type="text/css">
	.st0{fill:#231F20;}
</style>
<path class="st0" d="M346.2,1.1l12.9,1.3l12.8,1.8l12.6,2.3l12.4,2.8l12.2,3.3l12,3.7l11.8,4.2l11.6,4.6l11.4,5.1l11.1,5.5l10.9,5.9
	l10.6,6.3l10.4,6.7l10.1,7.1l9.8,7.5l9.5,7.8l9.2,8.2l8.9,8.5l8.5,8.8l8.2,9.2l7.8,9.5l7.5,9.8l7.1,10.1l6.7,10.4l6.3,10.6l5.9,10.9
	l5.5,11.1l5.1,11.4l4.6,11.6l4.2,11.8l3.7,12l3.3,12.2l2.8,12.4l2.3,12.6l1.8,12.8l1.3,12.9l0.8,13L640,320l-0.3,13.2l-0.8,13
	l-1.3,12.9l-1.8,12.8l-2.3,12.6l-2.8,12.4l-3.3,12.2l-3.7,12l-4.2,11.8l-4.6,11.6l-5.1,11.4l-5.5,11.1l-5.9,10.9l-6.3,10.6
	l-6.7,10.4l-7.1,10.1l-7.5,9.8l-7.8,9.5l-8.2,9.2l-8.5,8.9l-8.9,8.5l-9.2,8.2l-9.5,7.8l-9.8,7.5l-10.1,7.1l-10.4,6.7l-10.6,6.3
	l-10.9,5.9l-11.1,5.5l-11.4,5.1l-11.6,4.6l-11.8,4.2l-12,3.7l-12.2,3.3l-12.4,2.8l-12.6,2.3l-12.8,1.8l-12.9,1.3l-13,0.8L320,640
	l-13.2-0.3l-13-0.8l-12.9-1.3l-12.8-1.8l-12.6-2.3l-12.4-2.8l-12.2-3.3l-12-3.7l-11.8-4.2l-11.6-4.6l-11.4-5.1l-11.1-5.5l-10.9-5.9
	l-10.6-6.3l-10.4-6.7l-10.1-7.1l-9.8-7.5l-9.5-7.8l-9.2-8.2l-8.8-8.5l-8.5-8.9l-8.2-9.2l-7.8-9.5l-7.5-9.8l-7.1-10.1l-6.7-10.4
	l-6.3-10.6l-5.9-10.9l-5.5-11.1l-5.1-11.4L20.5,433l-4.2-11.8l-3.7-12L9.3,397l-2.8-12.4L4.2,372l-1.8-12.8l-1.3-12.9l-0.8-13L0,320
	l0.3-13.2l0.8-13l1.3-12.9l1.8-12.8l2.3-12.6l2.8-12.4l3.3-12.2l3.7-12l4.2-11.8l4.6-11.6l5.1-11.4l5.5-11.1l5.9-10.9l6.3-10.6
	l6.7-10.4l7.1-10.1l7.5-9.8l7.8-9.5l8.2-9.2l8.5-8.8l8.8-8.5l9.2-8.2l9.5-7.8l9.8-7.5l10.1-7.1l10.4-6.7l10.6-6.3l10.9-5.9l11.1-5.5
	l11.4-5.1l11.6-4.6l11.8-4.2l12-3.7l12.2-3.3l12.4-2.8l12.6-2.3l12.8-1.8l12.9-1.3l13-0.8L320,0l13.2,0.3L346.2,1.1z M451.7,126.6
	l-1,0.1l-1,0.1l-0.9,0.1l-0.9,0.2l-0.9,0.2l-0.9,0.2l-0.9,0.2l-0.9,0.2l-0.9,0.3l-0.9,0.3l-0.9,0.3l-0.9,0.3l-0.8,0.4l-0.8,0.4
	l-0.8,0.4l-0.8,0.4l-0.8,0.5l-0.8,0.5l-0.8,0.5l-0.7,0.5l-0.7,0.6l-0.7,0.6l-0.7,0.6l-0.7,0.6l-0.7,0.6l-0.6,0.6l-0.6,0.7l-0.6,0.7
	l-0.6,0.7l-0.6,0.7l-0.5,0.7l-0.5,0.7l-0.5,0.8l-0.5,0.8l-0.5,0.8l-0.4,0.8l-0.4,0.8l-0.4,0.8l-77.5-16.5h-0.2h-0.2h-0.2h-0.2h-0.2
	h-0.2h-0.2h-0.2h-0.2h-0.2h-0.2h-0.2h-0.2h-0.2h-0.2h-0.2h-0.2h-0.2h-0.2h-0.2h-0.2h-0.2h-0.2h-0.2h-0.2l-0.2,0.1h-0.2l-0.2,0.1
	l-0.2,0.1l-0.1,0.1l-0.2,0.1l-0.1,0.1l-0.1,0.1l-0.1,0.1l-0.1,0.1l-0.1,0.1l-0.1,0.1l-0.2,0.1l-0.1,0.1l-0.1,0.1l-0.1,0.1l-0.1,0.1
	l-0.1,0.1l-0.1,0.1l-0.1,0.1l-0.1,0.1l-0.1,0.1l-0.1,0.1l-0.1,0.1l-0.1,0.1l-0.1,0.1l-0.1,0.1l-0.1,0.1l-0.1,0.1l-0.1,0.1l-0.1,0.1
	l-0.1,0.1l-0.1,0.1l-0.1,0.1l-0.1,0.1l-0.1,0.1l-0.1,0.1l-0.1,0.1l-0.1,0.1l-0.1,0.1l-0.1,0.2l-0.1,0.1l-0.1,0.1l-0.1,0.2l-0.1,0.1
	l-0.1,0.2l-0.1,0.1l-0.1,0.2l-0.1,0.2l-0.1,0.2l-0.1,0.2l-0.1,0.2l-0.1,0.2l-0.1,0.2v0.2l-23.6,111.5l-3.7,0.1l-3.7,0.2l-3.7,0.2
	l-3.7,0.3l-3.6,0.3l-3.6,0.4l-3.6,0.4l-3.6,0.5l-3.5,0.5l-3.5,0.6l-3.5,0.6l-3.5,0.6l-3.4,0.7l-3.4,0.7l-3.4,0.8l-3.4,0.8l-3.3,0.9
	l-3.3,0.9l-3.3,1l-3.2,1l-3.2,1l-3.2,1.1l-3.1,1.1l-3.1,1.2l-3.1,1.2l-3,1.2l-3,1.3l-2.9,1.3l-2.9,1.4l-2.9,1.4l-2.8,1.4l-2.8,1.5
	l-2.7,1.5l-2.7,1.5l-2.7,1.6l-2.6,1.6l-2.6,1.7l-2.5,1.7l-2.5,1.7l-2.4,1.8l-0.6-0.6l-0.6-0.6l-0.6-0.6l-0.7-0.5l-0.7-0.5l-0.7-0.5
	l-0.7-0.5l-0.7-0.5l-0.7-0.5l-0.7-0.5l-0.7-0.5l-0.7-0.5l-0.8-0.4l-0.8-0.4L175,279l-0.8-0.4l-0.8-0.4l-0.8-0.4l-0.8-0.4L171,277
	l-0.8-0.3l-0.8-0.3l-0.8-0.3l-0.8-0.3l-0.9-0.3l-0.9-0.3l-0.9-0.2l-0.9-0.2l-0.9-0.2l-0.9-0.2l-0.9-0.2l-0.9-0.2l-0.9-0.1l-0.9-0.1
	l-0.9-0.1l-0.9-0.1l-0.9-0.1h-0.9h-0.9h-0.9h-1.9l-1.9,0.1l-1.9,0.2l-1.9,0.3l-1.8,0.3l-1.8,0.4l-1.8,0.5l-1.8,0.5l-1.7,0.6
	l-1.7,0.7l-1.7,0.8l-1.6,0.8l-1.6,0.9l-1.6,0.9l-1.5,1l-1.5,1l-1.4,1.1l-1.4,1.1l-1.3,1.2l-1.3,1.2l-1.2,1.3l-1.2,1.3l-1.1,1.4
	l-1.1,1.4l-1,1.5l-1,1.5l-0.9,1.6l-0.9,1.6l-0.8,1.6l-0.7,1.7l-0.7,1.7l-0.6,1.7l-0.6,1.8L108,309l-0.4,1.8l-0.3,1.8l-0.3,1.9
	l-0.2,1.9l-0.1,1.9v1.9v1.4l0.1,1.4l0.1,1.4l0.1,1.4l0.2,1.4l0.2,1.4l0.3,1.4l0.3,1.3l0.3,1.3l0.4,1.3l0.4,1.3l0.4,1.3l0.5,1.2
	l0.5,1.2l0.6,1.2l0.6,1.2l0.6,1.2l0.7,1.2l0.7,1.1l0.7,1.1l0.7,1.1l0.8,1.1l0.8,1.1l0.8,1l0.9,1l0.9,1l0.9,0.9l1,0.9l1,0.9l1,0.9
	l1,0.8l1.1,0.8l1.1,0.8l1.1,0.8l1.1,0.7l1.1,0.7l1.2,0.7l1.2,0.6l1.2,0.6l1.2,0.6l-0.1,0.3l-0.1,0.3l-0.1,0.3l-0.1,0.3v0.3l-0.1,0.3
	l-0.1,0.4v0.3l-0.1,0.4v0.4v0.4v0.3v0.4v0.4v0.3v0.4v0.4v0.4v0.4v0.4v0.4v0.4v0.4v0.4v0.4v0.4v0.4v0.4v0.4v0.4v0.4v0.4v0.4v0.4v0.4
	v0.4v0.4v0.4v0.4v0.4l0.1,5.4l0.5,5.3l0.8,5.2l1.1,5.2l1.4,5.1l1.6,5l1.9,5l2.2,4.9l2.4,4.8l2.7,4.7l3,4.6l3.2,4.5l3.4,4.4l3.7,4.3
	l3.9,4.2l4.1,4.1l4.4,4l4.6,3.8l4.8,3.7l5,3.6l5.2,3.5l5.4,3.3l5.5,3.2l5.7,3l5.9,2.9l6,2.7l6.2,2.6l6.4,2.4l6.5,2.2l6.6,2.1
	l6.8,1.9l6.9,1.7l7,1.5l7.1,1.3l7.2,1.1l7.4,0.9l7.4,0.7l7.5,0.5l7.6,0.3l7.7,0.1l7.7-0.1l7.6-0.3l7.5-0.5l7.4-0.7l7.4-0.9l7.2-1.1
	l7.1-1.3l7-1.5l6.9-1.7l6.8-1.9l6.6-2.1l6.5-2.2l6.3-2.4l6.2-2.6l6-2.7l5.9-2.9l5.7-3l5.5-3.2l5.4-3.3l5.2-3.5l5-3.6l4.8-3.7
	l4.6-3.8l4.3-4l4.1-4.1l3.9-4.2l3.7-4.3l3.5-4.4l3.2-4.5l3-4.6l2.7-4.7l2.4-4.8l2.2-4.9l1.9-5l1.6-5l1.4-5.1l1.1-5.2l0.8-5.2
	l0.5-5.3l0.2-5.4v-0.4v-0.4v-0.4v-0.4V376v-0.4v-0.4v-0.4v-0.4V374v-0.4v-0.4v-0.4v-0.4V372v-0.3v-0.4V371v-0.3v-0.3v-0.3v-0.3v-0.3
	v-0.3v-0.4v-0.3v-0.3v-0.3v-0.3v-0.3l-0.1-0.3v-0.3l-0.1-0.3v-0.3l-0.1-0.3v-0.3l-0.1-0.3l-0.1-0.3v-0.3l-0.1-0.3l1.1-0.6l1.1-0.6
	l1.1-0.6l1.1-0.7l1.1-0.7l1.1-0.7l1-0.8l1-0.8l1-0.8l1-0.9l1-0.9l0.9-0.9l0.9-0.9l0.9-1l0.9-1l0.8-1l0.8-1l0.8-1.1l0.8-1.1l0.7-1.1
	l0.7-1.1l0.7-1.1l0.7-1.2l0.6-1.2l0.6-1.2l0.6-1.2l0.5-1.2l0.5-1.3l0.5-1.3l0.4-1.3l0.4-1.3l0.3-1.3l0.3-1.3l0.3-1.4l0.2-1.4
	l0.2-1.4l0.2-1.4l0.1-1.4l0.1-1.4v-1.4v-1.9l-0.1-1.9l-0.2-1.9l-0.3-1.9l-0.3-1.8l-0.4-1.8l-0.5-1.8l-0.5-1.8l-0.6-1.7l-0.7-1.7
	l-0.7-1.7l-0.8-1.6l-0.9-1.6l-0.9-1.6l-1-1.5l-1-1.5l-1.1-1.4l-1.1-1.4l-1.2-1.3l-1.2-1.3L519,287l-1.3-1.2l-1.4-1.1l-1.4-1.1
	l-1.5-1l-1.5-1l-1.6-0.9l-1.6-0.9l-1.6-0.8l-1.7-0.8l-1.7-0.7l-1.7-0.6l-1.8-0.5l-1.8-0.5l-1.8-0.4l-1.8-0.3l-1.9-0.3l-1.9-0.2
	l-1.9-0.1h-1.9h-0.9h-1h-0.9l-0.9,0.1l-0.9,0.1l-0.9,0.1l-0.9,0.1l-0.9,0.1l-0.9,0.1l-0.9,0.2l-0.9,0.2l-0.9,0.2l-0.9,0.2l-0.9,0.2
	l-0.9,0.2l-0.9,0.3l-0.8,0.3l-0.8,0.3l-0.8,0.3l-0.8,0.3L468,277l-0.8,0.4l-0.8,0.4l-0.8,0.4l-0.8,0.4L464,279l-0.8,0.4l-0.8,0.4
	l-0.7,0.5l-0.7,0.5l-0.7,0.5l-0.7,0.5l-0.7,0.5l-0.7,0.5l-0.7,0.6l-0.7,0.6l-0.7,0.6l-0.6,0.6l-0.6,0.6l-0.6,0.6l-2.4-1.7l-2.5-1.7
	l-2.5-1.6l-2.5-1.6l-2.6-1.6l-2.6-1.5l-2.7-1.5l-2.7-1.5l-2.8-1.4l-2.8-1.4l-2.8-1.4l-2.9-1.3l-2.9-1.3l-2.9-1.3l-3-1.2l-3-1.2
	l-3.1-1.2l-3.1-1.1l-3.1-1.1l-3.2-1l-3.2-1l-3.2-1l-3.2-0.9l-3.3-0.9l-3.3-0.8l-3.3-0.8l-3.3-0.8l-3.4-0.7l-3.4-0.7l-3.4-0.6
	l-3.5-0.6l-3.5-0.5l-3.5-0.5l-3.5-0.4l-3.5-0.4l-3.6-0.4l-3.6-0.3L337,247l-3.6-0.2l-3.6-0.2l21.3-99.9l69.2,14.6l0.1,1.3l0.1,1.3
	l0.2,1.3l0.2,1.3l0.3,1.2l0.3,1.2l0.4,1.2l0.4,1.2l0.5,1.2l0.5,1.1l0.6,1.1l0.6,1.1l0.6,1.1l0.7,1.1l0.7,1l0.7,1l0.8,1l0.8,0.9
	l0.9,0.9l0.9,0.9l0.9,0.9l0.9,0.8l1,0.8l1,0.7l1,0.7l1.1,0.7l1.1,0.6l1.1,0.6l1.1,0.5l1.2,0.5l1.2,0.5l1.2,0.4l1.2,0.4l1.2,0.3
	l1.3,0.3l1.3,0.2l1.3,0.2l1.3,0.1l1.3,0.1h1.3h1.4l1.4-0.1l1.3-0.1l1.3-0.2l1.3-0.2l1.3-0.3l1.3-0.3l1.2-0.4l1.2-0.4l1.2-0.5
	l1.2-0.5l1.2-0.6l1.1-0.6l1.1-0.7l1.1-0.7l1.1-0.7l1-0.8l1-0.8l1-0.9l0.9-0.9l0.9-0.9l0.9-0.9l0.8-1l0.8-1l0.7-1.1l0.7-1.1l0.7-1.1
	l0.6-1.1l0.6-1.2l0.5-1.2l0.5-1.2l0.4-1.2l0.4-1.2l0.3-1.3l0.3-1.3l0.2-1.3l0.2-1.3l0.1-1.3l0.1-1.4v-1.4v-1.4l-0.1-1.4l-0.1-1.3
	l-0.2-1.3l-0.2-1.3l-0.3-1.3l-0.3-1.3l-0.4-1.2l-0.4-1.2l-0.5-1.2l-0.5-1.2l-0.6-1.2l-0.6-1.1l-0.7-1.1l-0.7-1.1l-0.7-1.1l-0.8-1
	l-0.8-1l-0.9-1l-0.9-0.9l-0.9-0.9l-1-0.9l-1-0.8l-1-0.8l-1.1-0.7l-1.1-0.7l-1.1-0.7l-1.1-0.6l-1.2-0.6l-1.2-0.5l-1.2-0.5l-1.2-0.4
	l-1.2-0.4l-1.3-0.3l-1.3-0.3l-1.3-0.2l-1.3-0.2l-1.3-0.1l-1.4-0.1h-1.4h-1L451.7,126.6z M394.6,426.4h0.3h0.3l0.3,0.1l0.3,0.1
	l0.3,0.1l0.3,0.1l0.3,0.1l0.3,0.1l0.3,0.1l0.3,0.1l0.3,0.2l0.3,0.2l0.3,0.2l0.3,0.2l0.3,0.2l0.3,0.2l0.3,0.2l0.2,0.2l0.2,0.3
	l0.2,0.3l0.2,0.3l0.2,0.3l0.2,0.3l0.1,0.3l0.1,0.3l0.1,0.3l0.1,0.3l0.1,0.3l0.1,0.3l0.1,0.3l0.1,0.3l0.1,0.3v0.3v0.3v0.3v0.3v0.3
	v0.3v0.3v0.3v0.3v0.3l-0.1,0.3l-0.1,0.3l-0.1,0.3l-0.1,0.3l-0.1,0.3l-0.1,0.3l-0.1,0.3L401,439l-0.2,0.3l-0.2,0.3l-0.2,0.3l-0.2,0.3
	l-0.2,0.3l-0.2,0.3l-0.2,0.3l-0.2,0.2l-1.8,1.7l-1.8,1.6l-1.9,1.5l-2,1.4l-2,1.4l-2.1,1.3l-2.1,1.2l-2.1,1.2l-2.2,1.1l-2.2,1l-2.3,1
	l-2.3,0.9l-2.3,0.9l-2.3,0.8l-2.3,0.7l-2.3,0.7l-2.3,0.6l-2.3,0.6l-2.3,0.6l-2.3,0.5l-2.3,0.5l-2.3,0.4l-2.2,0.4l-2.2,0.3l-2.2,0.3
	l-2.1,0.3l-2.1,0.2l-2,0.2l-2,0.2l-1.9,0.2l-1.8,0.1l-1.8,0.1l-1.7,0.1l-1.6,0.1l-1.5,0.1h-1.4h-1.3h-1.2h-1.1h-1h-1h-1.1h-1.2h-1.3
	h-1.4l-1.5-0.1l-1.6-0.1l-1.7-0.1l-1.8-0.1l-1.8-0.1l-1.9-0.2l-2-0.2l-2-0.2l-2.1-0.3l-2.1-0.3l-2.2-0.3l-2.2-0.4l-2.2-0.4l-2.3-0.4
	l-2.3-0.5l-2.3-0.5l-2.3-0.6l-2.3-0.6l-2.3-0.6l-2.3-0.7L271,458l-2.3-0.8l-2.3-0.9l-2.3-0.9l-2.2-1l-2.2-1l-2.2-1.1l-2.1-1.2
	l-2.1-1.2l-2.1-1.3l-2-1.4l-1.9-1.4l-1.9-1.5l-1.8-1.6l-1.7-1.6l-0.2-0.2l-0.2-0.3l-0.2-0.3l-0.2-0.3l-0.2-0.3l-0.2-0.3l-0.2-0.3
	l-0.2-0.3l-0.1-0.3l-0.1-0.3l-0.1-0.3l-0.1-0.3l-0.1-0.3l-0.1-0.3l-0.1-0.3l-0.1-0.3l-0.1-0.3v-0.3v-0.3v-0.3v-0.3v-0.3v-0.3
	l0.1-0.3l0.1-0.3l0.1-0.3l0.1-0.3l0.1-0.3l0.1-0.3l0.1-0.3l0.1-0.3l0.1-0.3l0.2-0.3l0.2-0.3l0.2-0.3l0.2-0.3l0.2-0.3l0.2-0.3
	l0.2-0.3l0.2-0.3l0.3-0.2l0.3-0.2l0.3-0.2l0.3-0.2l0.3-0.2l0.3-0.2l0.3-0.2l0.3-0.2l0.3-0.1l0.3-0.1l0.3-0.1l0.3-0.1l0.3-0.1
	l0.3-0.1l0.3-0.1l0.3-0.1h0.3h0.3h0.3h0.3h0.3h0.3h0.3h0.3l0.3,0.1l0.3,0.1l0.3,0.1l0.3,0.1l0.3,0.1l0.3,0.1l0.3,0.1l0.3,0.1
	l0.3,0.2l0.3,0.2l0.3,0.2l0.3,0.2l0.3,0.2l0.3,0.2l0.3,0.2l0.2,0.2l1.1,1l1.2,1l1.2,1l1.3,1l1.3,0.9l1.4,0.9l1.4,0.9l1.5,0.8
	l1.5,0.8l1.5,0.8l1.6,0.7l1.6,0.7l1.7,0.7l1.7,0.6l1.7,0.6l1.7,0.6l1.8,0.6l1.8,0.5l1.8,0.5l1.8,0.5l1.8,0.4l1.8,0.4l1.9,0.4
	l1.9,0.4l1.9,0.4l1.9,0.3l1.9,0.3l1.9,0.3l1.9,0.2l1.9,0.2l1.9,0.2l1.9,0.2l1.8,0.1l1.8,0.1l1.8,0.1l1.8,0.1l1.8,0.1h1.7h1.7h1.7
	h1.7h1.7h1.7l1.8-0.1l1.8-0.1l1.8-0.1l1.8-0.1l1.8-0.1l1.8-0.2l1.9-0.2l1.9-0.2l1.9-0.2l1.9-0.3l1.9-0.3l1.9-0.3l1.9-0.4l1.8-0.4
	l1.9-0.4l1.8-0.4l1.8-0.4l1.8-0.5l1.8-0.5l1.8-0.5l1.8-0.6l1.7-0.6l1.7-0.6l1.7-0.6l1.7-0.7l1.6-0.7l1.6-0.7l1.5-0.8l1.5-0.8
	l1.5-0.8l1.4-0.9l1.4-0.9l1.3-0.9l1.3-1l1.2-1l1.2-1l1.1-1l0.3-0.2l0.3-0.2l0.3-0.2l0.3-0.2l0.3-0.2l0.3-0.2l0.3-0.2l0.3-0.2
	l0.3-0.1l0.3-0.1l0.3-0.1l0.3-0.1l0.3-0.1l0.3-0.1l0.3-0.1l0.3-0.1h0.3h0.3h0.3h0.3h0.3L394.6,426.4z M396.1,320.1l1.3,0.1l1.3,0.2
	l1.3,0.2l1.3,0.3l1.3,0.3l1.2,0.4l1.2,0.4l1.2,0.5l1.2,0.5l1.2,0.6l1.1,0.6l1.1,0.6l1.1,0.7l1,0.7l1,0.8l1,0.8l1,0.9l0.9,0.9
	l0.9,0.9l0.9,1l0.8,1l0.8,1l0.7,1l0.7,1.1l0.7,1.1l0.6,1.1l0.6,1.2l0.5,1.2l0.5,1.2l0.4,1.2l0.4,1.2l0.3,1.3l0.3,1.3l0.2,1.3
	l0.2,1.3l0.1,1.3l0.1,1.4v1.4v1.4l-0.1,1.4l-0.1,1.3l-0.2,1.3L426,360l-0.3,1.3l-0.3,1.3l-0.4,1.2l-0.4,1.2l-0.5,1.2l-0.5,1.2
	l-0.6,1.1l-0.6,1.1l-0.7,1.1l-0.7,1.1l-0.7,1l-0.8,1l-0.8,1l-0.9,1l-0.9,0.9l-0.9,0.9l-1,0.8l-1,0.8l-1,0.8l-1,0.7l-1.1,0.7
	l-1.1,0.7l-1.1,0.6l-1.2,0.6l-1.2,0.5l-1.2,0.5l-1.2,0.4l-1.2,0.4l-1.3,0.3l-1.3,0.3l-1.3,0.2l-1.3,0.2l-1.3,0.1l-1.3,0.1h-1.4h-1.4
	l-1.4-0.1l-1.3-0.1l-1.3-0.2l-1.3-0.2l-1.3-0.3l-1.3-0.3l-1.2-0.4l-1.2-0.4l-1.2-0.5l-1.2-0.5l-1.2-0.6l-1.1-0.6l-1.1-0.7l-1.1-0.7
	l-1.1-0.7l-1-0.8l-1-0.8l-1-0.8l-0.9-0.9l-0.9-0.9l-0.9-1l-0.8-1l-0.8-1l-0.7-1l-0.7-1.1l-0.7-1.1l-0.6-1.1l-0.6-1.1l-0.5-1.2
	l-0.5-1.2l-0.4-1.2l-0.4-1.2l-0.3-1.3l-0.3-1.3l-0.2-1.3l-0.2-1.3l-0.1-1.3l-0.1-1.4v-1.4v-1.4l0.1-1.4l0.1-1.3l0.2-1.3l0.2-1.3
	l0.3-1.3l0.3-1.3l0.4-1.2l0.4-1.2l0.5-1.2l0.5-1.2l0.6-1.2l0.6-1.1l0.7-1.1l0.7-1.1l0.7-1l0.8-1l0.8-1l0.9-1l0.9-0.9l0.9-0.9l1-0.9
	l1-0.8l1-0.8l1.1-0.7l1.1-0.7l1.1-0.6l1.1-0.6l1.2-0.6l1.2-0.5l1.2-0.5l1.2-0.4l1.2-0.4l1.3-0.3l1.3-0.3l1.3-0.2l1.3-0.2l1.3-0.1
	l1.4-0.1h1.4h1.4L396.1,320.1z M249.4,320.1l1.3,0.1l1.3,0.2l1.3,0.2l1.3,0.3l1.3,0.3l1.2,0.4l1.2,0.4l1.2,0.5l1.2,0.5l1.2,0.6
	l1.1,0.6l1.1,0.6l1.1,0.7l1.1,0.7l1,0.8l1,0.8l1,0.9l0.9,0.9l0.9,0.9l0.9,1l0.8,1l0.8,1l0.7,1l0.7,1.1l0.7,1.1l0.6,1.1l0.6,1.2
	l0.5,1.2l0.5,1.2l0.4,1.2l0.4,1.2l0.3,1.3l0.3,1.3l0.2,1.3l0.2,1.3l0.1,1.3l0.1,1.4v1.4v1.4l-0.1,1.4l-0.1,1.3l-0.2,1.3l-0.2,1.3
	l-0.3,1.3l-0.3,1.3l-0.4,1.2l-0.4,1.2l-0.5,1.2l-0.5,1.2l-0.6,1.1l-0.6,1.1l-0.7,1.1l-0.7,1.1l-0.7,1l-0.8,1l-0.8,1l-0.9,1l-0.9,0.9
	l-0.9,0.9l-1,0.8l-1,0.8l-1,0.8l-1.1,0.7l-1.1,0.7l-1.1,0.7l-1.1,0.6l-1.2,0.6l-1.2,0.5l-1.2,0.5l-1.2,0.4l-1.2,0.4l-1.3,0.3
	l-1.3,0.3l-1.3,0.2l-1.3,0.2l-1.3,0.1l-1.4,0.1h-1.4h-1.4l-1.4-0.1l-1.3-0.1l-1.3-0.2l-1.3-0.2l-1.3-0.3l-1.3-0.3l-1.2-0.4l-1.2-0.4
	l-1.2-0.5l-1.2-0.5l-1.2-0.6l-1.1-0.6l-1.1-0.7l-1.1-0.7l-1-0.7l-1-0.8l-1-0.8l-1-0.8l-0.9-0.9l-0.9-0.9l-0.9-1l-0.8-1l-0.8-1
	l-0.7-1l-0.7-1.1l-0.7-1.1l-0.6-1.1l-0.6-1.1l-0.5-1.2l-0.5-1.2l-0.4-1.2l-0.4-1.2l-0.3-1.3L214,360l-0.2-1.3l-0.2-1.3l-0.1-1.3
	l-0.1-1.4v-1.4v-1.4l0.1-1.4l0.1-1.3l0.2-1.3l0.2-1.3l0.3-1.3l0.3-1.3l0.4-1.2l0.4-1.2l0.5-1.2l0.5-1.2l0.6-1.2l0.6-1.1l0.7-1.1
	l0.7-1.1l0.7-1l0.8-1l0.8-1l0.9-1l0.9-0.9l0.9-0.9l1-0.9l1-0.8l1-0.8l1-0.7l1.1-0.7l1.1-0.6l1.1-0.6l1.2-0.6l1.2-0.5l1.2-0.5
	l1.2-0.4l1.2-0.4l1.3-0.3l1.3-0.3l1.3-0.2l1.3-0.2l1.3-0.1l1.4-0.1h1.4h1.4L249.4,320.1z"/>
</svg>
