<?xml version="1.0" encoding="utf-8"?>
<!-- Generator: Adobe Illustrator 23.1.0, SVG Export Plug-In . SVG Version: 6.00 Build 0)  -->
<svg version="1.1" id="Layer_1" xmlns="http://www.w3.org/2000/svg" xmlns:xlink="http://www.w3.org/1999/xlink" x="0px" y="0px"
	 viewBox="0 0 19.8 19.8" style="enable-background:new 0 0 19.8 19.8;" xml:space="preserve">
<path d="M9.8,19.7c-1.6,0-2.6-0.5-3.3-1c-0.2-0.1-0.3-0.2-0.5-0.3l-0.2-0.1C4.9,18,4,18.5,3.1,17.8c-0.1-0.1-0.2-0.2-0.4-0.5
	c-0.1-0.1-0.2-0.3-0.2-0.4l-0.1-0.1c-0.5-0.1-0.9-0.3-1.3-0.5c-0.2-0.1-0.5-0.3-0.6-0.5c-0.5-0.5-0.6-1.1-0.4-1.8
	c0.3-0.8,0.9-1,1.4-1.2c0.7-0.3,1.2-0.8,1.8-1.5L3.4,11c-0.2-0.2-0.5-0.5-0.7-0.7C2.2,9.9,1.9,9.6,1.8,9.5c-0.1-0.3-0.3-0.7-0.3-1
	c0-0.2,0-0.6,0.2-0.9c0.4-0.8,1.2-1.3,2-1.3h0.1V5.5C4,3.7,4.6,2.8,5.3,2.1c0.3-0.4,0.8-0.9,1.4-1.2c0.8-0.5,1.8-0.8,3-0.8
	c0.9,0,2,0.1,3.1,0.7c0.5,0.2,1,0.7,1.4,1.1c0.6,0.7,1.3,1.8,1.5,3.6l0,0.8h0.1c1,0,1.8,0.5,2.1,1.3C18,7.9,18,8.2,18,8.5
	c0,0.4-0.1,0.7-0.3,0.9c-0.2,0.2-0.5,0.5-1.1,1.1c-0.1,0.1-0.3,0.3-0.4,0.4c0.1,0.1,0.2,0.2,0.2,0.3c0.4,0.6,1.1,1.1,1.9,1.6
	c0.4,0.2,1.2,0.7,1.3,1.2c0.4,0.9-0.3,1.6-0.5,1.8c-0.1,0.1-0.4,0.4-0.6,0.5c0,0-0.9,0.5-1.4,0.6c0,0.1,0,0.2-0.1,0.3l-0.1,0.1
	c-0.1,0.2-0.3,0.4-0.5,0.5c-0.8,0.6-1.8,0.1-2.7,0.5c-0.1,0.1-0.3,0.2-0.6,0.4C12.3,19.2,11.4,19.7,9.8,19.7z M3.7,17
	c0.2,0.2,0.5,0.2,0.9,0.2c0.4,0,1,0,1.6,0.2l0.2,0.1c0.2,0.1,0.5,0.2,0.7,0.4c0.5,0.3,1.3,0.8,2.6,0.8s2.1-0.4,2.7-0.8
	c0.3-0.2,0.5-0.3,0.8-0.4c0.6-0.3,1.2-0.3,1.6-0.3c0.5,0,0.7,0,1-0.2c0.1-0.1,0.2-0.1,0.2-0.2c0,0,0-0.1,0.1-0.1c0,0,0,0,0-0.1
	c0.1-0.2,0.2-0.4,0.5-0.6l0.1-0.1h0.1c0,0,0.8-0.3,1.2-0.5c0.1,0,0.3-0.2,0.4-0.3c0.4-0.4,0.4-0.6,0.3-0.7l0-0.1
	c-0.1-0.1-0.5-0.4-0.7-0.5h0l-0.1-0.1c-1-0.5-1.7-1.2-2.3-1.9c-0.1-0.1-0.1-0.2-0.2-0.3c-0.1-0.1-0.2-0.3-0.2-0.4L15.1,11v-0.1
	c0-0.3,0.1-0.3,0.9-1.1c0.3-0.3,0.8-0.8,0.9-0.9C16.9,8.8,17,8.7,17,8.5c0-0.1,0-0.4,0-0.5c-0.2-0.5-0.6-0.7-1.2-0.7h-1.1V5.5
	c-0.1-1.5-0.7-2.4-1.2-3c-0.4-0.4-0.7-0.7-1.1-0.9c-0.8-0.4-1.5-0.6-2.7-0.6c-1,0-1.8,0.2-2.5,0.6C6.7,2,6.3,2.3,6.1,2.7
	C5.4,3.4,4.9,4.1,4.9,5.5l0,1.8H3.8C3.3,7.3,2.8,7.6,2.6,8c0,0.1,0,0.4,0,0.5c0,0.1,0.1,0.3,0.1,0.5c0,0,0.4,0.4,0.6,0.6
	c0.9,0.9,1.1,1.1,1.1,1.4v0.1l-0.4,0.7c-0.7,1-1.4,1.5-2.2,1.9c-0.5,0.2-0.7,0.3-0.8,0.6c-0.1,0.5,0.1,0.7,0.2,0.8
	c0.1,0.1,0.2,0.2,0.4,0.3c0.4,0.2,0.7,0.4,1.1,0.5C2.8,15.9,2.9,16,3,16c0.2,0.1,0.3,0.4,0.6,0.7C3.6,16.9,3.7,17,3.7,17z"/>
</svg>
