<svg width="28" height="28" viewBox="0 0 28 28" fill="none" xmlns="http://www.w3.org/2000/svg">
<path d="M7.75 5.10156H19.8496C19.791 4.31055 19.332 3.89062 18.4629 3.89062H9.13672C8.26758 3.89062 7.80859 4.31055 7.75 5.10156ZM5.93359 7.70898H21.6562C21.5293 6.85938 21.1094 6.38086 20.1621 6.38086H7.4375C6.49023 6.38086 6.07031 6.85938 5.93359 7.70898ZM6.80273 24.8574H20.7871C22.7305 24.8574 23.7266 23.8711 23.7266 21.9473V12.123C23.7266 10.1992 22.7305 9.21289 20.7871 9.21289H6.80273C4.83984 9.21289 3.85352 10.1895 3.85352 12.123V21.9473C3.85352 23.8809 4.83984 24.8574 6.80273 24.8574ZM6.86133 23.2559C5.96289 23.2559 5.46484 22.7773 5.46484 21.8398V12.2305C5.46484 11.293 5.96289 10.8145 6.86133 10.8145H20.7285C21.6172 10.8145 22.125 11.293 22.125 12.2305V21.8398C22.125 22.7773 21.6172 23.2559 20.7285 23.2559H19.3418C18.5996 21.2441 16.4219 19.8477 13.7949 19.8477C11.168 19.8477 8.99023 21.2441 8.24805 23.2559H6.86133ZM13.7949 18.4609C15.3965 18.4805 16.666 17.1133 16.666 15.3262C16.666 13.6367 15.3965 12.25 13.7949 12.25C12.1934 12.25 10.9141 13.6367 10.9238 15.3262C10.9336 17.1133 12.1836 18.4512 13.7949 18.4609Z" fill="#333333"/>
</svg>
