<?xml version="1.0" encoding="utf-8"?>
<!-- Generator: Adobe Illustrator 23.1.0, SVG Export Plug-In . SVG Version: 6.00 Build 0)  -->
<svg version="1.1" id="Layer_1" xmlns="http://www.w3.org/2000/svg" xmlns:xlink="http://www.w3.org/1999/xlink" x="0px" y="0px"
	 viewBox="0 0 20 20" style="enable-background:new 0 0 20 20;" xml:space="preserve">
<style type="text/css">
	.st0{fill-rule:evenodd;clip-rule:evenodd;fill:#000102;}
</style>
<path class="st0" d="M10,0.1c5.5,0,10,4.5,10,10c0,5-3.7,9.1-8.4,9.9v-7h2.3l0.4-2.9l0,0l0,0h-2.8V8.2c0-0.8,0.4-1.6,1.6-1.6h1.3
	V4.2l0,0l0,0c0,0-1.1-0.2-2.2-0.2C9.9,4,8.4,5.4,8.4,7.9v2.2H5.9V13l0,0l0,0h2.5v7l0,0C3.7,19.2,0,15.1,0,10.1C0,4.6,4.5,0.1,10,0.1
	z"/>
</svg>
