<?xml version="1.0" encoding="utf-8"?>
<!-- Generator: Adobe Illustrator 23.1.0, SVG Export Plug-In . SVG Version: 6.00 Build 0)  -->
<svg version="1.1" id="Layer_1" xmlns="http://www.w3.org/2000/svg" xmlns:xlink="http://www.w3.org/1999/xlink" x="0px" y="0px"
	 viewBox="0 0 18.7 18.7" style="enable-background:new 0 0 18.7 18.7;" xml:space="preserve">
<path d="M7,18.7c-3.3,0-5.8-2.4-5.8-5.6c0-3.2,2.4-5.9,5.6-6.3L8,6.7v3.6l-1.1-0.1c-0.1,0-0.1,0-0.2,0c-1.2,0-2.2,1.4-2.2,2.6
	c0,1.4,1.1,2.5,2.6,2.5c0.9,0,2.6-0.5,2.6-2.4L9.8,0h3.1l0.2,0.7c0.7,2.2,2.3,3.3,3.5,3.6l0.8,0.2v3.5l-1.1-0.1
	c-1.2-0.1-2.3-0.4-3.3-1v5.6C13.1,16.1,10.5,18.7,7,18.7z"/>
</svg>
