<?xml version="1.0" encoding="utf-8"?>
<!-- Generator: Adobe Illustrator 23.1.0, SVG Export Plug-In . SVG Version: 6.00 Build 0)  -->
<svg version="1.1" id="Layer_1" xmlns="http://www.w3.org/2000/svg" xmlns:xlink="http://www.w3.org/1999/xlink" x="0px" y="0px"
	 viewBox="0 0 20.4 20.4" style="enable-background:new 0 0 20.4 20.4;" xml:space="preserve">
<style type="text/css">
	.st0{fill-rule:evenodd;clip-rule:evenodd;}
</style>
<path class="st0" d="M18.2,3.4c0.9,0.2,1.6,0.9,1.8,1.8c0.4,1.6,0.4,5,0.4,5s0,3.4-0.4,5c-0.2,0.9-0.9,1.6-1.8,1.8
	c-1.6,0.4-8,0.4-8,0.4s-6.4,0-8-0.4c-0.9-0.2-1.6-0.9-1.8-1.8c-0.4-1.6-0.4-5-0.4-5s0-3.4,0.4-5c0.2-0.9,0.9-1.6,1.8-1.8
	c1.6-0.4,8-0.4,8-0.4S16.6,2.9,18.2,3.4z M13.5,10.2l-5.4,3.1V7.1L13.5,10.2z"/>
</svg>
