<?xml version="1.0" encoding="utf-8"?>
<!-- Generator: Adobe Illustrator 23.1.0, SVG Export Plug-In . SVG Version: 6.00 Build 0)  -->
<svg version="1.1" id="Layer_1" xmlns="http://www.w3.org/2000/svg" xmlns:xlink="http://www.w3.org/1999/xlink" x="0px" y="0px"
	 viewBox="0 0 18.8 18.8" style="enable-background:new 0 0 18.8 18.8;" xml:space="preserve">
<path d="M9.4,0C4.2,0,0,4.2,0,9.4c0,4,2.5,7.4,6,8.8c-0.1-0.7-0.2-1.9,0-2.7c0.2-0.7,1.1-4.7,1.1-4.7s-0.3-0.6-0.3-1.4
	c0-1.3,0.8-2.3,1.7-2.3c0.8,0,1.2,0.6,1.2,1.3c0,0.8-0.5,2-0.8,3.1c-0.2,0.9,0.5,1.7,1.4,1.7c1.7,0,3-1.8,3-4.3
	c0-2.3-1.6-3.8-3.9-3.8c-2.7,0-4.3,2-4.3,4.1c0,0.8,0.3,1.7,0.7,2.1c0.1,0.1,0.1,0.2,0.1,0.3c-0.1,0.3-0.2,0.9-0.3,1.1
	c0,0.2-0.1,0.2-0.3,0.1c-1.2-0.5-1.9-2.2-1.9-3.6c0-3,2.2-5.7,6.2-5.7c3.3,0,5.8,2.3,5.8,5.4c0,3.3-2,5.9-4.9,5.9
	c-1,0-1.9-0.5-2.2-1.1c0,0-0.5,1.8-0.6,2.2c-0.2,0.8-0.8,1.8-1.2,2.5c0.9,0.3,1.8,0.4,2.8,0.4c5.2,0,9.4-4.2,9.4-9.4
	C18.8,4.2,14.6,0,9.4,0z"/>
</svg>
