<?xml version="1.0" encoding="utf-8"?>
<!-- Generator: Adobe Illustrator 23.1.0, SVG Export Plug-In . SVG Version: 6.00 Build 0)  -->
<svg version="1.1" id="Layer_1" xmlns="http://www.w3.org/2000/svg" xmlns:xlink="http://www.w3.org/1999/xlink" x="0px" y="0px"
	 viewBox="0 0 19 19" style="enable-background:new 0 0 19 19;" xml:space="preserve">
<style type="text/css">
	.st0{fill-rule:evenodd;clip-rule:evenodd;}
</style>
<path class="st0" d="M17.4,18.9H1.6c-0.9,0-1.6-0.7-1.6-1.6V1.6C0,0.7,0.7,0,1.6,0h15.8C18.3,0,19,0.7,19,1.6v15.8
	C18.9,18.2,18.2,18.9,17.4,18.9z M5.9,4.2c0,0.9-0.8,1.7-1.7,1.7S2.5,5.2,2.5,4.2c0-0.9,0.8-1.7,1.7-1.7S5.9,3.3,5.9,4.2z M9.9,7.3
	H7.3v8.9h2.8v-4.4c0-1.2,0.5-2.3,2-2.3c1.1,0,1.4,0.8,1.4,2.3v4.4h2.8v-5c0-2.8-0.9-4-3.5-4c-1.4,0-2.4,0.8-2.7,1.5V7.3H9.9z
	 M5.6,16.2H2.8V7.3h2.8V16.2z"/>
</svg>
