<?xml version="1.0" encoding="utf-8"?>
<!-- Generator: Adobe Illustrator 23.1.0, SVG Export Plug-In . SVG Version: 6.00 Build 0)  -->
<svg version="1.1" id="Layer_1" xmlns="http://www.w3.org/2000/svg" xmlns:xlink="http://www.w3.org/1999/xlink" x="0px" y="0px"
	 viewBox="0 0 20.4 20.4" style="enable-background:new 0 0 20.4 20.4;" xml:space="preserve">
<style type="text/css">
	.st0{fill-rule:evenodd;clip-rule:evenodd;}
</style>
<path class="st0" d="M20,5.2c-0.2-0.9-0.9-1.6-1.8-1.8c-1.6-0.5-8-0.4-8-0.4s-6.4,0-8,0.4C1.3,3.6,0.6,4.3,0.4,5.2
	C0,6.8,0,10.2,0,10.2s0,3.4,0.4,5c0.2,0.9,0.9,1.6,1.8,1.8c1.6,0.4,8,0.4,8,0.4s6.4,0,8-0.4c0.9-0.2,1.6-0.9,1.8-1.8
	c0.4-1.6,0.4-5,0.4-5S20.4,6.8,20,5.2z M8.1,13.3V7.1l5.4,3.1L8.1,13.3z"/>
</svg>
