<?xml version="1.0" encoding="utf-8"?>
<!-- Generator: Adobe Illustrator 23.1.0, SVG Export Plug-In . SVG Version: 6.00 Build 0)  -->
<svg version="1.1" id="Layer_1" xmlns="http://www.w3.org/2000/svg" xmlns:xlink="http://www.w3.org/1999/xlink" x="0px" y="0px"
	 viewBox="0 0 18.9 18.9" style="enable-background:new 0 0 18.9 18.9;" xml:space="preserve">
<style type="text/css">
	.st0{fill-rule:evenodd;clip-rule:evenodd;}
</style>
<path class="st0" d="M13.1,5.2c-1-0.9-2.3-1.4-3.6-1.4C7,3.8,5,5.5,4.2,7.7l0,0c-0.4,1.2-0.4,2.4,0,3.6l0,0c0.7,2.2,2.8,3.9,5.3,3.9
	c1.3,0,2.4-0.3,3.2-0.9l0,0c1-0.7,1.7-1.7,1.9-2.9H9.5V7.8h8.9c0.1,0.6,0.2,1.3,0.2,1.9c0,2.9-1,5.3-2.8,6.9l0,0
	c-1.6,1.4-3.7,2.3-6.2,2.3c-3.6,0-6.8-2-8.4-5.2l0,0c-1.3-2.7-1.3-5.8,0-8.5l0,0C2.8,2,6.1,0,9.6,0c2.3,0,4.6,0.9,6.3,2.5L13.1,5.2z
	"/>
</svg>
