<?xml version="1.0" encoding="utf-8"?>
<!-- Generator: Adobe Illustrator 23.1.0, SVG Export Plug-In . SVG Version: 6.00 Build 0)  -->
<svg version="1.1" id="Layer_1" xmlns="http://www.w3.org/2000/svg" xmlns:xlink="http://www.w3.org/1999/xlink" x="0px" y="0px"
	 viewBox="0 0 19 19" style="enable-background:new 0 0 19 19;" xml:space="preserve">
<style type="text/css">
	.st0{fill-rule:evenodd;clip-rule:evenodd;}
</style>
<path class="st0" d="M9.5,0C6.9,0,6.6,0,5.6,0.1c-1,0-1.7,0.2-2.3,0.4S2.2,1,1.7,1.6c-0.5,0.5-0.8,1-1.1,1.7
	C0.3,3.8,0.2,4.5,0.1,5.5c0,1-0.1,1.3-0.1,3.9s0,2.9,0.1,3.9c0,1,0.2,1.7,0.4,2.3c0.2,0.6,0.6,1.1,1.1,1.7c0.5,0.5,1,0.8,1.7,1.1
	c0.6,0.2,1.3,0.4,2.3,0.4s1.3,0.1,3.9,0.1s2.9,0,3.9-0.1c1,0,1.7-0.2,2.3-0.4c0.6-0.2,1.1-0.6,1.7-1.1c0.5-0.5,0.8-1,1.1-1.7
	c0.2-0.6,0.4-1.3,0.4-2.3S19,12,19,9.4s0-2.9-0.1-3.9c0-1-0.2-1.7-0.4-2.3c-0.2-0.6-0.6-1.1-1.1-1.7c-0.5-0.5-1-0.8-1.7-1.1
	C15.1,0.2,14.4,0,13.4,0C12.4,0,12.1,0,9.5,0z M9.5,1.7c2.5,0,2.8,0,3.8,0.1c0.9,0,1.4,0.2,1.8,0.3c0.4,0.1,0.7,0.3,1,0.7
	c0.4,0.3,0.6,0.6,0.7,1c0.1,0.3,0.3,0.8,0.3,1.8s0.1,1.3,0.1,3.8s0,2.8-0.1,3.8c0,0.9-0.2,1.4-0.3,1.8c-0.2,0.4-0.4,0.8-0.7,1.1
	c-0.3,0.3-0.6,0.5-1.1,0.7c-0.3,0.1-0.8,0.3-1.8,0.3s-1.3,0.1-3.8,0.1s-2.8,0-3.8-0.1c-0.9,0-1.4-0.2-1.8-0.3
	c-0.3-0.2-0.6-0.4-0.9-0.8c-0.4-0.3-0.6-0.6-0.8-1c-0.1-0.3-0.3-0.8-0.3-1.8s-0.1-1.3-0.1-3.8s0-2.8,0.1-3.8c0-0.9,0.2-1.4,0.3-1.8
	c0.2-0.4,0.4-0.7,0.8-1c0.3-0.4,0.6-0.6,1-0.7C4.2,2,4.7,1.8,5.7,1.8C6.7,1.7,7,1.7,9.5,1.7z M9.5,12.5c-1.7,0-3.1-1.4-3.1-3.1
	s1.4-3.1,3.1-3.1s3.1,1.4,3.1,3.1S11.2,12.5,9.5,12.5z M9.5,4.6c-2.7,0-4.8,2.2-4.8,4.8c0,2.7,2.2,4.8,4.8,4.8
	c2.7,0,4.8-2.2,4.8-4.8C14.3,6.7,12.2,4.6,9.5,4.6z M14.5,5.5c0.6,0,1.1-0.5,1.1-1.1s-0.4-1.2-1.1-1.2c-0.6,0-1.1,0.5-1.1,1.1
	S13.9,5.5,14.5,5.5z"/>
</svg>
